@startuml ホテルと利用者と部屋と予約
' left to right direction
class "利用者" as user {
- 名前
- 住所
- 電話番号
}
class "ホテル" as hotel {
- 部屋
}
class "部屋" as room {
- タイプ
- 価格
- キャンペーン価格
}
class "予約" as reserve {
- チェックイン日
- 滞在期間
- 値段
}
hotel "1" *- "*" room
hotel o-- user:会員
user "*" - "1" reserve
room "1" -- "1" reserve
@enduml