@startuml 演習6-3-2
' left to right direction
[*] -right--> メニュー: 接続する
メニュー ----> 予約と確認: 予約と確認ボタンを押す
予約と確認 --> メニュー: 取消ボタンを押す
予約と確認 -right-> あなたの順番: 登録ボタンを押す
予約と確認 -right-> あなたの順番:　確認ボタンを押す
あなたの順番 --up--> メニュー: メニューボタンを押す
今の順番 ----> メニュー: メニューボタンを押す
メニュー --> 今の順番: 今の順番ボタンを押す
メニュー -right-> [*]: 終了
@enduml